<?xml version="1.0" encoding="utf-8"?>
<!-- Generator: Adobe Illustrator 19.0.0, SVG Export Plug-In . SVG Version: 6.00 Build 0)  -->
<svg version="1.1" id="Camada_1" xmlns="http://www.w3.org/2000/svg" xmlns:xlink="http://www.w3.org/1999/xlink" x="0px" y="0px"
	 viewBox="0 0 60 40" style="enable-background:new 0 0 60 40;" xml:space="preserve">
<style type="text/css">
	.st0{fill:#E17F63;}
</style>
<path id="XMLID_11_" class="st0" d="M4,8.9h12.2l6.4,6.3v15.5H4V8.9z M0.5,5.5v29.1h26.1V13.7l-8.7-8.2H0.5z"/>
<path id="XMLID_5_" class="st0" d="M6.5,28.5h14v-13h-14V28.5z M13.5,17.3h5.3v3.9h-5.3V17.3z M13.5,22.9h5.3v3.9h-5.3V22.9z
	 M8.2,17.3h3.4v3.9H8.2V17.3z M8.2,22.9h3.4v3.9H8.2V22.9z"/>
<path id="XMLID_2_" class="st0" d="M54.2,23H40.7v4h13.5v2.5l5.3-4.5l-5.3-4.5V23z M32.5,15.5l5.3,4.6v-2.5h13.5v-4H37.8v-3
	L32.5,15.5z"/>
</svg>
