<?xml version="1.0" encoding="utf-8"?>
<!-- Generator: Adobe Illustrator 19.0.0, SVG Export Plug-In . SVG Version: 6.00 Build 0)  -->
<svg version="1.1" id="Camada_1" xmlns="http://www.w3.org/2000/svg" xmlns:xlink="http://www.w3.org/1999/xlink" x="0px" y="0px"
	 viewBox="0 0 60 40" style="enable-background:new 0 0 60 40;" xml:space="preserve">
<style type="text/css">
	.st0{fill:#FFFFFF;}
	.st1{clip-path:url(#XMLID_7_);fill:#FFFFFF;}
</style>
<polygon id="XMLID_6_" class="st0" points="25.8,1.5 24.8,1.8 23.8,2.4 23.2,3.7 23,5.1 23.2,6.3 23.8,7.6 24.8,8.4 25.8,8.5 
	27.1,8.4 28.1,7.6 28.8,6.3 29,5.1 28.8,3.7 28.1,2.4 27.1,1.8 "/>
<polygon id="XMLID_5_" class="st0" points="26.4,9.5 25.1,9.5 24.3,9.7 23.5,10 22.1,10.8 21,12.1 20.2,13.6 19.7,15.3 19.2,17 
	19,18.9 19.2,20.5 19.4,21.2 19.7,21.6 20.2,22.1 20.8,22.1 21.3,22.1 21.7,21.6 22.1,21.2 22.1,20.5 22.1,19.2 22.1,17.6 
	22.3,16.1 23,14.7 23,21.2 23,21.5 23,29.1 22.7,36.7 22.7,37.6 23.1,38 23.8,38.5 24.3,38.5 25,38.5 25.3,38 25.8,37.6 26,36.7 
	26.3,30.8 26.3,24.9 26.8,24.9 26.8,30.8 27.1,36.7 27.3,37.6 27.6,38 28.1,38.5 28.6,38.5 29.3,38.5 29.9,38 30.3,37.6 30.3,36.7 
	30.1,29.1 30.1,21.5 30.1,21 30.1,14.4 30.7,15.8 30.9,17.4 31.1,19.1 30.9,20.5 30.9,21.2 31.4,21.6 31.8,22.1 32.4,22.1 
	32.8,22.1 33.4,21.6 33.9,21.2 34,20.5 34,18.9 33.9,17 33.4,15.3 32.8,13.6 31.9,12.1 30.7,10.8 30.1,10.3 29.3,10 28.5,9.7 
	27.4,9.5 "/>
<g id="XMLID_2_">
	<defs>
		<rect id="XMLID_3_" x="19" y="1.5" width="22" height="37"/>
	</defs>
	<clipPath id="XMLID_7_">
		<use xlink:href="#XMLID_3_"  style="overflow:visible;"/>
	</clipPath>
	<path id="XMLID_4_" class="st1" d="M39,25.5v-8c0-0.3-0.2-0.5-0.5-0.5c-0.3,0-0.5,0.2-0.5,0.5v8h-1.8l2.4,3.7l2.4-3.7H39z"/>
</g>
</svg>
