<?xml version="1.0" encoding="utf-8"?>
<!-- Generator: Adobe Illustrator 19.0.0, SVG Export Plug-In . SVG Version: 6.00 Build 0)  -->
<svg version="1.1" id="Camada_1" xmlns="http://www.w3.org/2000/svg" xmlns:xlink="http://www.w3.org/1999/xlink" x="0px" y="0px"
	 viewBox="0 0 60 40" style="enable-background:new 0 0 60 40;" xml:space="preserve">
<style type="text/css">
	.st0{clip-path:url(#XMLID_7_);fill:#E17F63;}
</style>
<g id="XMLID_2_">
	<defs>
		<rect id="XMLID_3_" x="14.5" y="7.2" width="31" height="25.6"/>
	</defs>
	<clipPath id="XMLID_7_">
		<use xlink:href="#XMLID_3_"  style="overflow:visible;"/>
	</clipPath>
	<path id="XMLID_4_" class="st0" d="M23.4,23.1L23.4,23.1v-8.7h-5.6c-2.2,0-3.3,1.5-3.3,3.1v8.1c0,2,1.1,3.1,3.3,3.1H19v4.1l5-4.1
		h7.7c1.7,0,2.8-1.1,2.8-3.1v-2.5H23.4z M42.2,7.2L42.2,7.2H28.3c-1.6,0-2.7,1.6-2.7,3.1v11.2h10.5l4.9,4.1v-4.1h1.1
		c1.7,0,3.3-1,3.3-3.1v-8.1C45.5,8.8,43.9,7.2,42.2,7.2"/>
</g>
</svg>
