<?xml version="1.0" encoding="utf-8"?>
<!-- Generator: Adobe Illustrator 19.0.0, SVG Export Plug-In . SVG Version: 6.00 Build 0)  -->
<svg version="1.1" id="Camada_1" xmlns="http://www.w3.org/2000/svg" xmlns:xlink="http://www.w3.org/1999/xlink" x="0px" y="0px"
	 viewBox="0 0 60 40" style="enable-background:new 0 0 60 40;" xml:space="preserve">
<style type="text/css">
	.st0{clip-path:url(#XMLID_10_);fill:#FFFFFF;}
</style>
<g id="XMLID_2_">
	<defs>
		<rect id="XMLID_3_" x="15.3" y="7.6" width="29.3" height="24.7"/>
	</defs>
	<clipPath id="XMLID_10_">
		<use xlink:href="#XMLID_3_"  style="overflow:visible;"/>
	</clipPath>
	<path id="XMLID_9_" class="st0" d="M29.2,17.1c0,0.9-0.8,1.7-1.7,1.7H17c-0.9,0-1.6-0.7-1.6-1.7V9.3c0-0.9,0.7-1.7,1.6-1.7h10.5
		c0.9,0,1.7,0.8,1.7,1.7V17.1z"/>
	<path id="XMLID_8_" class="st0" d="M29.2,23.9c0,0.9-0.8,1.7-1.7,1.7h-7.8c-0.9,0-1.6-0.8-1.6-1.7v-2.2c0-0.9,0.7-1.7,1.6-1.7h7.8
		c0.9,0,1.7,0.7,1.7,1.7V23.9z"/>
	<path id="XMLID_7_" class="st0" d="M29.2,30.7c0,0.9-0.8,1.7-1.7,1.7H22c-0.9,0-1.6-0.8-1.6-1.7v-2.2c0-0.9,0.7-1.7,1.6-1.7h5.5
		c0.9,0,1.7,0.7,1.7,1.7V30.7z"/>
	<path id="XMLID_6_" class="st0" d="M44.7,17.1c0,0.9-0.7,1.7-1.6,1.7H32.8c-0.9,0-1.7-0.7-1.7-1.7V9.3c0-0.9,0.8-1.7,1.7-1.7H43
		c0.9,0,1.6,0.8,1.6,1.7V17.1z"/>
	<path id="XMLID_5_" class="st0" d="M42.2,23.9c0,0.9-0.7,1.7-1.6,1.7h-7.8c-0.9,0-1.7-0.8-1.7-1.7v-2.2c0-0.9,0.8-1.7,1.7-1.7h7.8
		c0.9,0,1.6,0.7,1.6,1.7V23.9z"/>
	<path id="XMLID_4_" class="st0" d="M39.9,30.7c0,0.9-0.7,1.7-1.6,1.7h-5.5c-0.9,0-1.7-0.8-1.7-1.7v-2.2c0-0.9,0.8-1.7,1.7-1.7h5.5
		c0.9,0,1.6,0.7,1.6,1.7V30.7z"/>
</g>
</svg>
