<?xml version="1.0" encoding="utf-8"?>
<!-- Generator: Adobe Illustrator 19.0.0, SVG Export Plug-In . SVG Version: 6.00 Build 0)  -->
<svg version="1.1" id="Camada_1" xmlns="http://www.w3.org/2000/svg" xmlns:xlink="http://www.w3.org/1999/xlink" x="0px" y="0px"
	 viewBox="0 0 60 40" style="enable-background:new 0 0 60 40;" xml:space="preserve">
<style type="text/css">
	.st0{fill:#FFFFFF;}
</style>
<path id="XMLID_2_" class="st0" d="M21.7,18.5l-1.1,0.2l-0.9,0.2l-0.9,0.4l-0.7,0.5l-0.6,0.6l-0.3,0.8L17,22.1l-0.2,0.8v7.9h5.3
	v-8.7v-1l0.2-0.8l0.3-0.8l0.4-0.8l-0.6-0.2H21.7z M37.8,18.5l-0.7,0.2l0.3,0.8l0.4,0.8l0.2,0.8v1v8.7h5.2v-7.9L43,22.1l-0.1-0.8
	l-0.6-0.8l-0.5-0.6l-0.8-0.5l-0.9-0.4l-0.9-0.2l-0.9-0.2H37.8z M28.7,15.8l-1.4,0.5l-1.1,0.4l-1.1,0.8l-0.9,1l-0.7,1l-0.4,1.2
	l-0.1,1.3v11.3h13.8V22.1l-0.2-1.3l-0.4-1.2l-0.7-1l-0.9-1l-0.9-0.8l-1.3-0.4l-1.2-0.5l-1.4-0.2L28.7,15.8z M21,12.1l-0.6,0.1
	L20,12.4l-0.4,0.4l-0.3,0.4l-0.4,0.5l-0.2,0.4v0.5v0.6l0.2,0.4l0.4,0.5l0.3,0.3l0.4,0.4l0.5,0.4l0.6,0.1h0.7h0.6l0.5-0.1l0.5-0.4
	l0.6-0.4l0.4-0.3l0.1-0.5l0.2-0.4l0.2-0.6l-0.2-0.5l-0.2-0.4l-0.1-0.5l-0.4-0.4l-0.6-0.4l-0.5-0.2l-0.5-0.1l-0.6-0.2L21,12.1z
	 M37.8,12.1l-0.5,0.1l-0.6,0.2l-0.4,0.4l-0.3,0.4l-0.4,0.5l-0.2,0.4v0.5v0.6l0.2,0.4l0.4,0.5l0.3,0.3l0.4,0.4l0.6,0.4l0.5,0.1h0.7
	H39l0.5-0.1l0.6-0.4l0.5-0.4l0.4-0.3l0.1-0.5l0.2-0.4l0.2-0.6l-0.2-0.5l-0.2-0.4L41,13.2l-0.4-0.4l-0.5-0.4l-0.6-0.2L39,12.1
	l-0.6-0.2L37.8,12.1z M29.2,6.6L28.4,7l-0.7,0.3L27,7.8l-0.6,0.6L26.1,9l-0.3,0.8v0.8v0.8l0.3,0.7l0.4,0.8l0.6,0.4l0.7,0.4l0.7,0.5
	l0.9,0.2l0.9,0.2l0.9-0.2l0.8-0.2l0.9-0.5l0.5-0.4l0.5-0.4l0.6-0.8l0.2-0.7l0.2-0.8l-0.2-0.8L34.1,9l-0.6-0.6l-0.5-0.6l-0.5-0.5
	L31.7,7L31,6.6H29.2z"/>
</svg>
