<?xml version="1.0" encoding="utf-8"?>
<!-- Generator: Adobe Illustrator 19.0.0, SVG Export Plug-In . SVG Version: 6.00 Build 0)  -->
<svg version="1.1" id="Camada_1" xmlns="http://www.w3.org/2000/svg" xmlns:xlink="http://www.w3.org/1999/xlink" x="0px" y="0px"
	 viewBox="0 0 60 40" style="enable-background:new 0 0 60 40;" xml:space="preserve">
<style type="text/css">
	.st0{fill:#E17F63;}
	.st1{clip-path:url(#XMLID_13_);fill:#E17F63;}
</style>
<polygon id="XMLID_12_" class="st0" points="18.9,2.5 18,2.8 17,3.4 16.5,4.6 16.3,6 16.5,7.1 17,8.3 18,9 18.9,9.2 20.1,9 
	21.1,8.3 21.7,7.1 21.9,6 21.7,4.6 21.1,3.4 20.1,2.8 "/>
<polygon id="XMLID_11_" class="st0" points="19.5,10.1 18.3,10.1 17.5,10.3 16.8,10.5 15.4,11.3 14.4,12.5 13.7,14 13.1,15.5 
	12.7,17.2 12.5,19 12.7,20.5 12.9,21.2 13.1,21.5 13.7,21.9 14.2,21.9 14.6,21.9 15.1,21.5 15.4,21.2 15.4,20.5 15.4,19.3 
	15.4,17.7 15.6,16.3 16.3,15 16.3,21.2 16.3,21.4 16.3,28.6 16,35.8 16,36.6 16.4,37 17,37.5 17.5,37.5 18.2,37.5 18.5,37 
	18.9,36.6 19.1,35.8 19.4,30.1 19.4,24.6 19.9,24.6 19.9,30.1 20.1,35.8 20.3,36.6 20.6,37 21.1,37.5 21.6,37.5 22.3,37.5 22.8,37 
	23.2,36.6 23.2,35.8 23,28.6 23,21.4 23,20.9 23,14.7 23.5,16.1 23.8,17.5 24,19.2 23.8,20.5 23.8,21.2 24.2,21.5 24.6,21.9 
	25.1,21.9 25.6,21.9 26.1,21.5 26.5,21.2 26.6,20.5 26.6,19 26.5,17.2 26.1,15.5 25.6,14 24.7,12.5 23.5,11.3 23,10.9 22.3,10.5 
	21.5,10.3 20.4,10.1 "/>
<g id="XMLID_2_">
	<defs>
		<rect id="XMLID_3_" x="12.5" y="2.5" width="35" height="34.9"/>
	</defs>
	<clipPath id="XMLID_13_">
		<use xlink:href="#XMLID_3_"  style="overflow:visible;"/>
	</clipPath>
	<path id="XMLID_4_" class="st1" d="M32.2,25.6L32.2,25.6h-1.3c-0.5,0-1.4,0.5-1.4,1.6c0,0.5,0.9,1,1.4,1h1.3c0.9,0,1.4-0.5,1.4-1
		C33.6,26.1,33.1,25.6,32.2,25.6 M32.2,19.8L32.2,19.8h-1.3c-0.5,0-1.4,0.5-1.4,1.1c0,1,0.9,1.5,1.4,1.5h1.3c0.9,0,1.4-0.5,1.4-1.5
		C33.6,20.4,33.1,19.8,32.2,19.8 M32.2,13.5L32.2,13.5h-1.3c-0.5,0-1.4,1.1-1.4,1.6c0,1,0.9,1.6,1.4,1.6h1.3c0.9,0,1.4-0.6,1.4-1.6
		C33.6,14.6,33.1,13.5,32.2,13.5 M37.2,16.7L37.2,16.7h9c0.5,0,1.3-0.6,1.3-1.6c0-0.5-0.9-1.6-1.3-1.6h-9c-0.5,0-1.4,1.1-1.4,1.6
		C35.8,16.1,36.7,16.7,37.2,16.7 M46.2,19.8L46.2,19.8h-9c-0.5,0-1.4,0.5-1.4,1.1c0,1,0.9,1.5,1.4,1.5h9c0.5,0,1.3-0.5,1.3-1.5
		C47.5,20.4,46.6,19.8,46.2,19.8 M46.2,25.6L46.2,25.6h-9c-0.5,0-1.4,0.5-1.4,1.6c0,0.5,0.9,1,1.4,1h9c0.5,0,1.3-0.5,1.3-1
		C47.5,26.1,46.6,25.6,46.2,25.6"/>
</g>
</svg>
