<?xml version="1.0" encoding="utf-8"?>
<!-- Generator: Adobe Illustrator 19.0.0, SVG Export Plug-In . SVG Version: 6.00 Build 0)  -->
<svg version="1.1" id="Camada_1" xmlns="http://www.w3.org/2000/svg" xmlns:xlink="http://www.w3.org/1999/xlink" x="0px" y="0px"
	 viewBox="0 0 60 40" style="enable-background:new 0 0 60 40;" xml:space="preserve">
<style type="text/css">
	.st0{fill:#E17F63;}
</style>
<polygon id="XMLID_3_" class="st0" points="28.3,16.1 26.5,16.7 25.1,17.2 23.7,18.2 22.6,19.3 21.8,20.4 21.3,21.9 21.1,23.4 
	21.1,36.4 38.9,36.4 38.9,23.4 38.6,21.9 38.1,20.4 37.3,19.3 36.1,18.2 35,17.2 33.4,16.7 31.9,16.1 30.1,15.9 "/>
<polygon id="XMLID_2_" class="st0" points="28.9,3.6 27.8,4.1 27,4.4 26.1,5.2 25.4,6 24.9,6.9 24.5,8 24.5,9.1 24.5,10.2 
	24.9,11.1 25.4,12.2 26.1,12.9 27,13.5 27.8,14.2 28.9,14.4 30.1,14.7 31.2,14.4 32.2,14.2 33.3,13.5 33.9,12.9 34.5,12.2 
	35.3,11.1 35.5,10.2 35.8,9.1 35.5,8 35.3,6.9 34.5,6 33.9,5.2 33.3,4.4 32.2,4.1 31.2,3.6 "/>
</svg>
